<svg width="19" height="10" viewBox="0 0 19 10" fill="none" xmlns="http://www.w3.org/2000/svg">
<path fill-rule="evenodd" clip-rule="evenodd" d="M2.10541 9.64425L9.49917 2.37256L16.8913 9.64425C17.3614 10.106 18.1393 10.1201 18.6243 9.67409C18.8593 9.45892 18.9934 9.16837 19 8.8574L19 8.83541C19 8.53387 18.8792 8.24802 18.6557 8.02972L11.1693 0.663797C10.1861 -0.234563 8.71626 -0.207864 7.82908 0.663796L0.340971 8.02971C0.120829 8.24645 1.07272e-07 8.53229 8.54623e-08 8.8307L8.52328e-08 8.83384L8.50032e-08 8.83698C6.19304e-08 9.15266 0.137381 9.45735 0.374075 9.67566C0.860703 10.1201 1.63865 10.106 2.10541 9.64425Z" fill="#BDBDBD"/>
</svg>
