<svg width="24" height="24" viewBox="0 0 24 24" fill="none" xmlns="http://www.w3.org/2000/svg">
<path fill-rule="evenodd" clip-rule="evenodd" d="M5.67032 20.9551L6.558 8.38908H8.39238V11.412C8.39238 11.8198 8.72054 12.1518 9.12542 12.1518C9.53031 12.1518 9.85847 11.8198 9.85847 11.412V8.38908H15.3604V11.412C15.3604 11.8198 15.6898 12.1518 16.0947 12.1518C16.4996 12.1518 16.8277 11.8198 16.8277 11.412V8.38908H18.6373L19.5238 20.9551H5.67032ZM9.78292 5.41829C9.78292 3.89733 11.0023 2.6597 12.4991 2.6597C13.9959 2.6597 15.2141 3.89733 15.2141 5.41829V6.92739H9.78292V5.41829ZM19.9901 7.50231L19.931 7.50705L19.9901 7.49638C19.9499 7.10044 19.6336 6.80288 19.2535 6.80288H16.7368V5.27362C16.7368 2.91691 14.8351 1 12.4955 1C10.1571 1 8.25426 2.91691 8.25426 5.27362V6.80288H5.73877C5.35985 6.80288 5.03641 7.10992 5.00218 7.50231L4 21.6509C4 21.8394 4.05902 22.0196 4.17116 22.1713C4.28566 22.3254 4.49814 22.4179 4.73659 22.4179H20.2545C20.4681 22.4179 20.6499 22.3444 20.7963 22.1974C20.9497 22.0433 21.0277 21.8145 20.9911 21.6331L19.9901 7.50231Z" fill="#222222"/>
</svg>
