<svg width="32" height="32" viewBox="0 0 32 32" fill="none" xmlns="http://www.w3.org/2000/svg">
<path d="M30.6667 25.3333C30.6667 26.0406 30.3857 26.7189 29.8856 27.219C29.3855 27.719 28.7072 28 28 28H4C3.29276 28 2.61448 27.719 2.11438 27.219C1.61429 26.7189 1.33333 26.0406 1.33333 25.3333V10.6667C1.33333 9.95942 1.61429 9.28115 2.11438 8.78105C2.61448 8.28095 3.29276 8 4 8H9.33333L12 4H20L22.6667 8H28C28.7072 8 29.3855 8.28095 29.8856 8.78105C30.3857 9.28115 30.6667 9.95942 30.6667 10.6667V25.3333Z" stroke="#000" stroke-width="2" stroke-linecap="round" stroke-linejoin="round"/>
<path d="M16 22.6667C18.9455 22.6667 21.3333 20.2789 21.3333 17.3333C21.3333 14.3878 18.9455 12 16 12C13.0545 12 10.6667 14.3878 10.6667 17.3333C10.6667 20.2789 13.0545 22.6667 16 22.6667Z" stroke="#000" stroke-width="2" stroke-linecap="round" stroke-linejoin="round"/>
</svg>
