<svg width="24" height="24" viewBox="0 0 24 24" fill="none" xmlns="http://www.w3.org/2000/svg">
<path fill-rule="evenodd" clip-rule="evenodd" d="M18.6236 11.7621L18.6216 11.7661C17.6604 13.0806 15.375 15.3794 12.01 18.4178L11.9045 18.514L11.8 18.4149C11.6219 18.2473 11.404 18.0431 11.1563 17.8131L11.1304 17.7884C9.47575 16.2449 6.3963 13.373 5.18641 11.768C4.39341 10.6736 4.1188 9.23719 4.46903 8.01687C4.75956 6.9175 5.5834 6.01142 6.72663 5.53261C7.15248 5.37301 7.61515 5.29271 8.10368 5.29271C10.0568 5.29271 11.1214 7.21291 11.3155 7.59853C11.408 7.81365 11.6378 7.94748 11.9035 7.94748C12.1682 7.94748 12.397 7.81663 12.4846 7.61241C12.8497 6.83125 14.9849 4.4263 17.6724 5.52865C18.6256 5.94203 19.2842 6.65678 19.5778 7.59556C19.9419 8.92294 19.5758 10.518 18.6236 11.7621ZM20.8125 7.27734L20.8095 7.26743C20.3897 5.89643 19.4872 4.91898 18.1291 4.36483C14.971 3.13658 12.6627 5.34525 12.0309 6.05207L11.9075 6.18986L11.7931 6.04315C10.7911 4.72865 9.44591 4.00597 8.00519 4.00597C7.41218 4.00597 6.81122 4.12692 6.21821 4.36582C4.71082 4.96657 3.60142 6.18193 3.17458 7.70064C2.74873 9.33533 3.11289 11.1445 4.14766 12.5393C5.19438 13.9281 7.54849 16.2796 11.1433 19.5281L11.3533 19.7175C11.406 19.7651 11.4389 19.7958 11.4508 19.8077C11.5831 19.9395 11.7781 20 11.9035 20C12.0338 20 12.2199 19.9366 12.3453 19.8751L12.3741 19.8513C12.3741 19.8493 12.4388 19.7908 12.5443 19.6947L12.6567 19.5926C16.2526 16.345 18.6096 13.9896 19.6623 12.5928C20.8533 10.9096 21.2841 8.92096 20.8125 7.27734Z" fill="#222222"/>
<path d="M18.6216 11.7661L18.7023 11.8251L18.7072 11.8184L18.711 11.8109L18.6216 11.7661ZM12.01 18.4178L11.9429 18.3436L11.9426 18.344L12.01 18.4178ZM11.9045 18.514L11.8357 18.5865L11.9031 18.6506L11.9719 18.5879L11.9045 18.514ZM11.8 18.4149L11.8689 18.3423L11.8685 18.342L11.8 18.4149ZM11.1563 17.8131L11.0871 17.8854L11.0882 17.8864L11.1563 17.8131ZM11.1304 17.7884L11.1996 17.7161L11.1986 17.7152L11.1304 17.7884ZM5.18641 11.768L5.10542 11.8267L5.10656 11.8282L5.18641 11.768ZM4.46903 8.01687L4.56517 8.04447L4.56571 8.04242L4.46903 8.01687ZM6.72663 5.53261L6.69151 5.43891L6.688 5.44038L6.72663 5.53261ZM11.3155 7.59853L11.4075 7.55895L11.4048 7.55359L11.3155 7.59853ZM12.4846 7.61241L12.3939 7.57004L12.3927 7.57301L12.4846 7.61241ZM17.6724 5.52865L17.7122 5.43689L17.7103 5.43613L17.6724 5.52865ZM19.5778 7.59556L19.6742 7.56909L19.6732 7.56572L19.5778 7.59556ZM20.8095 7.26743L20.9053 7.2386L20.9052 7.23815L20.8095 7.26743ZM18.1291 4.36483L18.1669 4.27223L18.1653 4.27163L18.1291 4.36483ZM12.0309 6.05207L12.1054 6.11877L12.1054 6.11871L12.0309 6.05207ZM11.9075 6.18986L11.8286 6.25136L11.9022 6.34568L11.982 6.25657L11.9075 6.18986ZM11.7931 6.04315L11.7135 6.10377L11.7142 6.10464L11.7931 6.04315ZM6.21821 4.36582L6.25523 4.45872L6.25558 4.45858L6.21821 4.36582ZM3.17458 7.70064L3.07829 7.67358L3.07781 7.67543L3.17458 7.70064ZM4.14766 12.5393L4.06735 12.5989L4.0678 12.5995L4.14766 12.5393ZM11.1433 19.5281L11.0763 19.6023L11.0764 19.6024L11.1433 19.5281ZM11.3533 19.7175L11.4203 19.6432L11.4203 19.6432L11.3533 19.7175ZM11.4508 19.8077L11.3802 19.8785L11.4508 19.8077ZM12.3453 19.8751L12.3893 19.9649L12.3998 19.9597L12.4089 19.9522L12.3453 19.8751ZM12.3741 19.8513L12.4377 19.9285L12.4741 19.8985V19.8513H12.3741ZM12.5443 19.6947L12.477 19.6206L12.4769 19.6208L12.5443 19.6947ZM12.6567 19.5926L12.5897 19.5184L12.5895 19.5185L12.6567 19.5926ZM19.6623 12.5928L19.7422 12.653L19.744 12.6506L19.6623 12.5928ZM18.5342 11.7172L18.5322 11.7212L18.711 11.8109L18.7129 11.807L18.5342 11.7172ZM18.5409 11.707C17.5867 13.012 15.3088 15.3044 11.9429 18.3436L12.077 18.4921C15.4411 15.4545 17.7342 13.1491 18.7023 11.8251L18.5409 11.707ZM11.9426 18.344L11.8371 18.4401L11.9719 18.5879L12.0773 18.4917L11.9426 18.344ZM11.9733 18.4415L11.8689 18.3423L11.7312 18.4874L11.8357 18.5865L11.9733 18.4415ZM11.8685 18.342C11.6903 18.1744 11.4723 17.97 11.2243 17.7399L11.0882 17.8864C11.3358 18.1162 11.5535 18.3203 11.7315 18.4877L11.8685 18.342ZM11.2254 17.7409L11.1996 17.7161L11.0612 17.8606L11.0871 17.8854L11.2254 17.7409ZM11.1986 17.7152C9.54038 16.1684 6.46949 13.304 5.26626 11.7078L5.10656 11.8282C6.32311 13.442 9.41112 16.3213 11.0622 17.8615L11.1986 17.7152ZM5.26738 11.7094C4.49109 10.638 4.22401 9.2331 4.56515 8.04446L4.37291 7.98929C4.01359 9.24129 4.29573 10.7093 5.10543 11.8267L5.26738 11.7094ZM4.56571 8.04242C4.84751 6.9761 5.64769 6.09292 6.76526 5.62485L6.688 5.44038C5.51912 5.92993 4.67162 6.85889 4.37235 7.99132L4.56571 8.04242ZM6.76173 5.62625C7.17549 5.47118 7.62617 5.39271 8.10368 5.39271V5.19271C7.60412 5.19271 7.12948 5.27484 6.69154 5.43898L6.76173 5.62625ZM8.10368 5.39271C9.04493 5.39271 9.77556 5.85492 10.299 6.37214C10.8227 6.88968 11.1315 7.45548 11.2261 7.64348L11.4048 7.55359C11.3054 7.35596 10.9849 6.76885 10.4395 6.22989C9.89383 5.69061 9.11557 5.19271 8.10368 5.19271V5.39271ZM11.2236 7.63805C11.3349 7.89679 11.606 8.04748 11.9035 8.04748V7.84748C11.6697 7.84748 11.4811 7.73051 11.4073 7.55902L11.2236 7.63805ZM11.9035 8.04748C12.198 8.04748 12.4695 7.9013 12.5765 7.65182L12.3927 7.57301C12.3245 7.73195 12.1383 7.84748 11.9035 7.84748V8.04748ZM12.5752 7.65476C12.7485 7.28391 13.3592 6.50153 14.2599 5.94947C15.1562 5.40006 16.3281 5.08531 17.6344 5.62117L17.7103 5.43613C16.3293 4.86963 15.0898 5.20619 14.1554 5.77895C13.2252 6.34908 12.5858 7.15975 12.394 7.57007L12.5752 7.65476ZM17.6326 5.62039C18.5608 6.02294 19.198 6.71607 19.4823 7.6254L19.6732 7.56572C19.3705 6.59748 18.6903 5.86112 17.7122 5.43691L17.6326 5.62039ZM19.4813 7.62202C19.836 8.91475 19.4804 10.4781 18.5442 11.7013L18.703 11.8229C19.6711 10.5579 20.0479 8.93114 19.6742 7.5691L19.4813 7.62202ZM20.9083 7.24851L20.9053 7.2386L20.7138 7.29626L20.7168 7.30618L20.9083 7.24851ZM20.9052 7.23815C20.4763 5.83768 19.5521 4.83744 18.1669 4.27224L18.0913 4.45742C19.4224 5.00052 20.3031 5.95517 20.7139 7.29671L20.9052 7.23815ZM18.1653 4.27163C14.9428 3.01833 12.5915 5.27484 11.9563 5.98542L12.1054 6.11871C12.7339 5.41567 14.9992 3.25484 18.0928 4.45803L18.1653 4.27163ZM11.9564 5.98536L11.833 6.12316L11.982 6.25657L12.1054 6.11877L11.9564 5.98536ZM11.9863 6.12836L11.8719 5.98165L11.7142 6.10464L11.8286 6.25136L11.9863 6.12836ZM11.8726 5.98252C10.8549 4.64732 9.48194 3.90597 8.00519 3.90597V4.10597C9.40989 4.10597 10.7274 4.80998 11.7135 6.10377L11.8726 5.98252ZM8.00519 3.90597C7.39842 3.90597 6.7848 4.02975 6.18084 4.27307L6.25558 4.45858C6.83763 4.22408 7.42595 4.10597 8.00519 4.10597V3.90597ZM6.18119 4.27293C4.64585 4.88481 3.51386 6.1239 3.07831 7.67358L3.27085 7.7277C3.68899 6.23996 4.77579 5.04833 6.25523 4.45872L6.18119 4.27293ZM3.07781 7.67543C2.64407 9.34039 3.01514 11.1806 4.06735 12.5989L4.22797 12.4797C3.21064 11.1084 2.85338 9.33028 3.27135 7.72585L3.07781 7.67543ZM4.0678 12.5995C5.12111 13.9971 7.48227 16.3545 11.0763 19.6023L11.2104 19.4539C7.61472 16.2046 5.26765 13.8592 4.22752 12.4791L4.0678 12.5995ZM11.0764 19.6024L11.2863 19.7917L11.4203 19.6432L11.2103 19.4539L11.0764 19.6024ZM11.2863 19.7917C11.3391 19.8394 11.3702 19.8686 11.3802 19.8785L11.5214 19.7368C11.5075 19.723 11.4729 19.6907 11.4203 19.6432L11.2863 19.7917ZM11.3802 19.8785C11.5333 20.031 11.7546 20.1 11.9035 20.1V19.9C11.8017 19.9 11.633 19.8481 11.5214 19.7368L11.3802 19.8785ZM11.9035 20.1C12.0566 20.1 12.2591 20.0287 12.3893 19.9649L12.3013 19.7853C12.1807 19.8444 12.0111 19.9 11.9035 19.9V20.1ZM12.4089 19.9522L12.4377 19.9285L12.3105 19.7741L12.2817 19.7979L12.4089 19.9522ZM12.4741 19.8513C12.4741 19.867 12.4704 19.8789 12.4685 19.8845C12.4662 19.8908 12.4638 19.8957 12.4622 19.8986C12.4592 19.9042 12.4563 19.9083 12.455 19.91C12.4524 19.9136 12.4501 19.9162 12.4496 19.9168C12.4481 19.9184 12.4473 19.9192 12.4479 19.9186C12.4487 19.9178 12.4508 19.9158 12.4545 19.9123C12.4616 19.9056 12.4725 19.8955 12.4872 19.882C12.5164 19.8553 12.5587 19.8168 12.6116 19.7686L12.4769 19.6208C12.4244 19.6687 12.3816 19.7076 12.3521 19.7346C12.3374 19.748 12.3256 19.7589 12.3173 19.7667C12.3133 19.7705 12.3095 19.7742 12.3064 19.7773C12.305 19.7787 12.3026 19.781 12.3002 19.7838C12.2992 19.7849 12.2965 19.7879 12.2936 19.7919C12.2922 19.7938 12.2892 19.798 12.2861 19.8038C12.2853 19.8053 12.2741 19.8244 12.2741 19.8513H12.4741ZM12.6115 19.7687L12.7239 19.6666L12.5895 19.5185L12.477 19.6206L12.6115 19.7687ZM12.7237 19.6668C16.3188 16.4199 18.6829 14.0585 19.7422 12.653L19.5825 12.5326C18.5364 13.9207 16.1863 16.2701 12.5897 19.5184L12.7237 19.6668ZM19.744 12.6506C20.9485 10.9482 21.3904 8.92865 20.9086 7.24976L20.7164 7.30492C21.1779 8.91327 20.7582 10.8709 19.5807 12.5351L19.744 12.6506Z" fill="#222222"/>
</svg>
