<svg width="20" height="19" viewBox="0 0 20 19" fill="none" xmlns="http://www.w3.org/2000/svg">
<path d="M14.5 0.487549C12.76 0.487549 11.09 1.29587 10 2.57321C8.91 1.29587 7.24 0.487549 5.5 0.487549C2.42 0.487549 0 2.90253 0 5.97614C0 9.7483 3.4 12.8219 8.55 17.4922L10 18.7995L11.45 17.4822C16.6 12.8219 20 9.7483 20 5.97614C20 2.90253 17.58 0.487549 14.5 0.487549ZM10.1 16.0053L10 16.1051L9.9 16.0053C5.14 11.7042 2 8.86014 2 5.97614C2 3.98029 3.5 2.4834 5.5 2.4834C7.04 2.4834 8.54 3.47135 9.07 4.8385H10.94C11.46 3.47135 12.96 2.4834 14.5 2.4834C16.5 2.4834 18 3.98029 18 5.97614C18 8.86014 14.86 11.7042 10.1 16.0053Z" fill="#323232"/>
</svg>
