<svg width="18" height="6" viewBox="0 0 18 6" fill="none" xmlns="http://www.w3.org/2000/svg">
<path d="M0.728 6H1.848V3.624C1.848 2.944 1.76 2.2 1.704 1.56H1.744L2.344 2.832L4.056 6H5.256V0.0719995H4.136V2.44C4.136 3.112 4.232 3.896 4.288 4.512H4.248L3.656 3.232L1.936 0.0719995H0.728V6ZM6.49619 6H10.2162V5.008H7.68019V3.424H9.76019V2.432H7.68019V1.064H10.1282V0.0719995H6.49619V6ZM11.7541 6H13.2021L13.8501 3.072C13.9461 2.608 14.0261 2.152 14.1061 1.696H14.1381C14.2101 2.152 14.2981 2.608 14.3941 3.072L15.0581 6H16.5301L17.6261 0.0719995H16.5061L16.0341 2.968C15.9461 3.584 15.8581 4.216 15.7701 4.856H15.7301C15.6021 4.216 15.4821 3.576 15.3541 2.968L14.6741 0.0719995H13.6581L12.9701 2.968C12.8421 3.584 12.7141 4.216 12.5941 4.856H12.5621C12.4741 4.216 12.3781 3.592 12.2901 2.968L11.8181 0.0719995H10.6181L11.7541 6Z" fill="#18A957"/>
</svg>
