<svg width="28" height="25" viewBox="0 0 28 25" fill="none" xmlns="http://www.w3.org/2000/svg">
<path d="M10.9227 10.9284L11.1632 10.3128L11.3844 10.9284H10.9227Z" stroke="#381E1F"/>
<path d="M14 0C6.63546 0 0.666687 4.64758 0.666687 10.3809C0.666687 14.1122 3.19696 17.3821 6.99237 19.2117C6.71194 20.2378 5.98217 22.9272 5.83558 23.5015C5.65394 24.217 6.10008 24.2076 6.39326 24.0161C6.62271 23.8655 10.0453 21.5715 11.5239 20.583C12.327 20.6991 13.1523 20.7619 14 20.7619C21.3646 20.7619 27.3333 16.1143 27.3333 10.3809C27.3365 4.64758 21.3646 0 14 0ZM7.49906 13.0546C7.50225 13.6854 6.07459 13.676 6.07459 13.0452C6.08096 12.1791 6.07459 8.46669 6.07459 8.46669H4.7011C3.89486 8.46669 3.89486 7.17064 4.69792 7.17064C4.69792 7.17064 7.91015 7.19574 8.87255 7.19574C9.7266 7.19574 9.72341 8.5169 8.87255 8.5169C7.96751 8.5169 7.50544 8.51376 7.50544 8.51376L7.49906 13.0546ZM12.7444 13.2147C12.4098 12.3486 12.4959 12.3078 12.4959 12.3078H9.98472L9.71066 13.2523C9.41748 13.9145 8.15553 13.3747 8.44871 12.7126C8.85343 11.7962 10.074 8.33488 10.4117 7.6037C10.5456 7.31499 10.8611 7.19888 11.1829 7.19888C11.5717 7.19888 11.9733 7.36834 12.088 7.6037C12.3302 8.11521 13.6654 11.7241 14.051 12.7251C14.3187 13.4312 13.0153 13.9176 12.7444 13.2147ZM17.8369 13.5316C17.1931 13.5316 15.7368 13.5379 15.0803 13.5379C14.4239 13.5379 14.5354 12.7848 14.5354 12.7848C14.5354 12.7848 14.5322 8.99703 14.529 7.82023C14.529 7.406 14.8987 7.19888 15.2715 7.19888C15.6412 7.19888 16.014 7.406 16.014 7.81709C16.0172 8.66753 16.0109 12.1728 16.0109 12.1728C16.0109 12.1728 17.1868 12.1791 17.8337 12.1791C18.4774 12.1822 18.4806 13.5316 17.8369 13.5316ZM22.2696 13.4281L20.4595 10.996L20.0453 11.3224C20.0453 11.3224 20.0453 12.5243 20.0453 13.1551C20.0453 13.7011 18.6367 13.7011 18.6367 13.1551C18.6367 12.8099 18.6686 8.14973 18.6527 7.63194C18.6463 7.34637 19.016 7.20202 19.3761 7.20202C19.7138 7.20202 20.0453 7.33068 20.0516 7.59428C20.0708 8.29409 20.0516 9.55876 20.0516 9.55876C20.0516 9.55876 22.0943 7.54407 22.3843 7.26164C22.6839 6.96666 23.6144 7.88927 23.3117 8.18112C22.7986 8.68322 21.4921 10.0734 21.4921 10.0734L23.4137 12.5651C23.7865 13.0452 22.6361 13.9019 22.2696 13.4281Z" fill="#381E1F"/>
</svg>
