<svg width="24" height="24" viewBox="0 0 24 24" fill="none" xmlns="http://www.w3.org/2000/svg">
<mask id="path-1-inside-1" fill="white">
<path fill-rule="evenodd" clip-rule="evenodd" d="M19.4906 4.60367C17.5339 2.62073 14.9237 1.51969 12.1363 1.50131C12.0904 1.5 12.0457 1.5 11.9998 1.5C7.77933 1.5 3.99981 3.99475 2.34364 7.88714C0.670411 11.8215 1.52999 16.3281 4.53262 19.3714C6.54968 21.4134 9.24128 22.5 11.9893 22.5C13.3318 22.4987 14.6888 22.2402 15.9867 21.706C19.9421 20.084 22.4985 16.2717 22.4985 11.9987C22.5169 9.2126 21.4486 6.58661 19.4906 4.60367Z"/>
</mask>
<path d="M12.1363 1.50131L12.0992 2.80078L12.1134 2.80119L12.1277 2.80128L12.1363 1.50131ZM2.34364 7.88714L1.14742 7.37816L1.14733 7.37837L2.34364 7.88714ZM4.53262 19.3714L3.60721 20.2844L3.60775 20.285L4.53262 19.3714ZM11.9893 22.5V23.8H11.9906L11.9893 22.5ZM15.9867 21.706L15.4934 20.5032L15.492 20.5039L15.9867 21.706ZM22.4985 11.9987L21.1985 11.9901V11.9987H22.4985ZM20.416 3.69058C18.2169 1.46202 15.2768 0.221984 12.1449 0.201341L12.1277 2.80128C14.5706 2.81739 16.851 3.77945 18.5653 5.51677L20.416 3.69058ZM12.1734 0.201843C12.1059 0.199914 12.0429 0.2 11.9998 0.2V2.8C12.0486 2.8 12.0748 2.80009 12.0992 2.80078L12.1734 0.201843ZM11.9998 0.2C7.25836 0.2 3.00779 3.00585 1.14742 7.37816L3.53986 8.39612C4.99182 4.98365 8.30031 2.8 11.9998 2.8V0.2ZM1.14733 7.37837C-0.732257 11.798 0.234562 16.8661 3.60721 20.2844L5.45802 18.4584C2.82542 15.7901 2.07308 11.8451 3.53995 8.39591L1.14733 7.37837ZM3.60775 20.285C5.8718 22.577 8.89767 23.8 11.9893 23.8V21.2C9.58489 21.2 7.22755 20.2498 5.45748 18.4578L3.60775 20.285ZM11.9906 23.8C13.4996 23.7985 15.0244 23.5078 16.4814 22.9082L15.492 20.5039C14.3532 20.9725 13.1641 21.1989 11.988 21.2L11.9906 23.8ZM16.4799 22.9088C20.9233 21.0867 23.7985 16.7991 23.7985 11.9987H21.1985C21.1985 15.7442 18.9608 19.0813 15.4934 20.5032L16.4799 22.9088ZM23.7985 12.0073C23.8191 8.87613 22.6159 5.91852 20.4157 3.69027L18.5656 5.51708C20.2814 7.2547 21.2146 9.54907 21.1985 11.9901L23.7985 12.0073Z" fill="#222222" mask="url(#path-1-inside-1)"/>
<path d="M14.4541 9.33624L17.2861 9.7433C17.8788 9.82796 18.1153 10.5563 17.6874 10.9738L15.6416 12.9731C15.4723 13.139 15.3946 13.3779 15.4352 13.6121L15.9235 16.4314C16.0255 17.0206 15.4074 17.4717 14.8774 17.1934L12.3434 15.8655C12.1335 15.7553 11.8818 15.7553 11.6719 15.8666L9.14024 17.2026C8.6114 17.4821 7.99211 17.0333 8.09185 16.443L8.57197 13.6226C8.6114 13.3883 8.5337 13.1494 8.36322 12.9836L6.31051 10.9912C5.88142 10.5737 6.11684 9.84652 6.7083 9.75954L9.53918 9.34436C9.77461 9.30957 9.97756 9.16228 10.0819 8.94889L11.3449 6.38127C11.6093 5.84432 12.3735 5.84316 12.6391 6.37895L13.909 8.94194C14.0146 9.15532 14.2187 9.30261 14.4541 9.33624Z" stroke="#222222" stroke-width="1.3" stroke-miterlimit="10" stroke-linecap="round" stroke-linejoin="round"/>
</svg>
