<svg width="18" height="18" viewBox="0 0 18 18" fill="none" xmlns="http://www.w3.org/2000/svg">
<path d="M3.6 13.75H3.33076L3.14038 13.9404L0.650872 16.4299L0.659 1.80036V1.8C0.659 1.16474 1.17322 0.65 1.8 0.65H16.2C16.831 0.65 17.35 1.16899 17.35 1.8V12.6C17.35 13.231 16.831 13.75 16.2 13.75H3.6Z" stroke="#222222" stroke-width="1.3"/>
<path fill-rule="evenodd" clip-rule="evenodd" d="M9.00058 8.17365C9.56331 8.17365 10.022 7.71496 10.022 7.1511C10.022 6.58836 9.56331 6.12967 9.00058 6.12967C8.43672 6.12967 7.97803 6.58836 7.97803 7.1511C7.97803 7.71496 8.43672 8.17365 9.00058 8.17365Z" fill="#222222"/>
<path fill-rule="evenodd" clip-rule="evenodd" d="M13.3786 8.17365C13.9414 8.17365 14.4001 7.71496 14.4001 7.1511C14.4001 6.58836 13.9414 6.12967 13.3786 6.12967C12.8148 6.12967 12.3561 6.58836 12.3561 7.1511C12.3561 7.71496 12.8148 8.17365 13.3786 8.17365Z" fill="#222222"/>
<path fill-rule="evenodd" clip-rule="evenodd" d="M4.62252 8.17365C5.18526 8.17365 5.64395 7.71496 5.64395 7.1511C5.64395 6.58836 5.18526 6.12967 4.62252 6.12967C4.05867 6.12967 3.59998 6.58836 3.59998 7.1511C3.59998 7.71496 4.05867 8.17365 4.62252 8.17365Z" fill="#222222"/>
</svg>
