<svg width="20" height="20" viewBox="0 0 20 20" fill="none" xmlns="http://www.w3.org/2000/svg">
<path fill-rule="evenodd" clip-rule="evenodd" d="M10.2173 7.71701C10.3735 7.5608 10.6267 7.5608 10.7829 7.71701L13.2829 10.217C13.4392 10.3732 13.4392 10.6265 13.2829 10.7827L10.7829 13.2827C10.6267 13.4389 10.3735 13.4389 10.2173 13.2827C10.061 13.1265 10.061 12.8732 10.2173 12.717L12.4344 10.4999L10.2173 8.2827C10.061 8.12649 10.061 7.87322 10.2173 7.71701Z" fill="#949494"/>
<path fill-rule="evenodd" clip-rule="evenodd" d="M6.71725 7.71701C6.87346 7.5608 7.12673 7.5608 7.28294 7.71701L9.78295 10.217C9.85796 10.292 9.9001 10.3938 9.9001 10.4999C9.9001 10.6059 9.85796 10.7077 9.78295 10.7827L7.28294 13.2827C7.12673 13.4389 6.87346 13.4389 6.71725 13.2827C6.56105 13.1265 6.56105 12.8732 6.71726 12.717L8.93442 10.4999L6.71726 8.2827C6.56105 8.12649 6.56105 7.87322 6.71725 7.71701Z" fill="#949494"/>
<rect x="0.25" y="0.25" width="19.5" height="19.5" stroke="#949494" stroke-width="0.5"/>
</svg>
