<svg width="18" height="18" viewBox="0 0 18 18" fill="none" xmlns="http://www.w3.org/2000/svg">
<path fill-rule="evenodd" clip-rule="evenodd" d="M7.7506 14.0986C4.25019 14.0986 1.40238 11.2517 1.40238 7.75108C1.40238 4.25047 4.25019 1.40249 7.7506 1.40249C11.251 1.40249 14.0988 4.25047 14.0988 7.75108C14.0988 11.2517 11.251 14.0986 7.7506 14.0986ZM17.7814 16.7124L13.8824 12.8032L13.9453 12.7259C15.0606 11.3533 15.6492 9.66589 15.6492 7.84822C15.6492 3.5216 12.141 0 7.829 0H7.82016C5.71992 0 3.76653 0.785154 2.31999 2.2108C0.823756 3.68503 0 5.66613 0 7.78859C0 12.1152 3.51035 15.6368 7.82458 15.6368C9.56816 15.6368 11.3404 15.0129 12.6876 13.9274L12.7649 13.8644L12.8345 13.9362L16.6628 17.7747C16.8185 17.9304 17.0416 18 17.1929 18C17.3386 18 17.5595 17.936 17.6986 17.7957C17.8841 17.6455 17.9879 17.4567 17.999 17.2546C18.01 17.058 17.9327 16.8659 17.7814 16.7124Z" fill="#222222"/>
</svg>
