<svg width="69" height="11" viewBox="0 0 69 11" fill="none" xmlns="http://www.w3.org/2000/svg">
<path d="M63 0L64.854 3.6204L69 4.20452L66 7.02103L66.708 11L63 9.1204L59.292 11L60 7.02103L57 4.20452L61.146 3.6204L63 0Z" fill="#EEEEEE"/>
<path d="M49 0L50.854 3.6204L55 4.20452L52 7.02103L52.708 11L49 9.1204L45.292 11L46 7.02103L43 4.20452L47.146 3.6204L49 0Z" fill="#EEEEEE"/>
<path d="M35 0L36.854 3.6204L41 4.20452L38 7.02103L38.708 11L35 9.1204L31.292 11L32 7.02103L29 4.20452L33.146 3.6204L35 0Z" fill="#EEEEEE"/>
<path d="M20 0L21.854 3.6204L26 4.20452L23 7.02103L23.708 11L20 9.1204L16.292 11L17 7.02103L14 4.20452L18.146 3.6204L20 0Z" fill="#EEEEEE"/>
<path d="M6 0L7.854 3.6204L12 4.20452L9 7.02103L9.708 11L6 9.1204L2.292 11L3 7.02103L0 4.20452L4.146 3.6204L6 0Z" fill="#222222"/>
</svg>
