<svg width="21" height="21" viewBox="0 0 21 21" fill="none" xmlns="http://www.w3.org/2000/svg">
<path fill-rule="evenodd" clip-rule="evenodd" d="M10.0325 18.5217C7.74496 18.5042 5.60115 17.5992 3.99361 15.9692C2.38856 14.3391 1.51354 12.1828 1.53104 9.8965C1.59729 5.26137 5.4024 1.52002 10.0288 1.52002H10.1125C14.7764 1.56627 18.5528 5.39763 18.5315 10.0615C18.509 14.7266 14.6952 18.5217 10.0325 18.5217ZM17.1366 2.95633C15.2727 1.06753 12.7864 0.0187505 10.1314 0.00125004C10.0876 0 10.0451 0 10.0013 0C5.98124 0 2.38113 2.37632 0.803589 6.08392C-0.790206 9.83153 0.0285672 14.1241 2.88865 17.023C4.80995 18.968 7.37377 20.0031 9.99135 20.0031C11.2701 20.0018 12.5627 19.7556 13.799 19.2468C17.5666 17.7017 20.0016 14.0704 20.0016 10.0003C20.0191 7.34646 19.0016 4.84514 17.1366 2.95633ZM13.9351 11.0603C13.8639 11.0316 13.7889 11.0153 13.7126 11.0128C13.4326 11.0116 13.1451 11.1853 13.0364 11.4741C12.5688 12.9654 11.1788 13.9079 9.64251 13.7854C8.19872 13.6879 6.96743 12.7379 6.71742 11.5253C6.66742 11.2803 6.49117 11.0803 6.25741 11.0016C6.02241 10.9216 5.76115 10.9766 5.57864 11.1453C5.39489 11.3103 5.31239 11.5666 5.36239 11.8104C5.73865 13.6404 7.4562 15.0354 9.5375 15.2017C9.66501 15.2117 9.79251 15.2167 9.91877 15.2167C11.9163 15.2167 13.7014 13.9192 14.3351 11.9629C14.4664 11.6041 14.2864 11.1991 13.9351 11.0603ZM12.3938 8.18769C13.0226 8.18769 13.5351 7.67518 13.5351 7.04516C13.5351 6.41639 13.0226 5.90388 12.3938 5.90388C11.7638 5.90388 11.2513 6.41639 11.2513 7.04516C11.2513 7.67518 11.7638 8.18769 12.3938 8.18769ZM7.33245 8.18769C7.96122 8.18769 8.47373 7.67518 8.47373 7.04516C8.47373 6.41639 7.96122 5.90388 7.33245 5.90388C6.70243 5.90388 6.18992 6.41639 6.18992 7.04516C6.18992 7.67518 6.70243 8.18769 7.33245 8.18769Z" fill="black"/>
</svg>
