<svg width="6" height="12" viewBox="0 0 6 12" fill="none" xmlns="http://www.w3.org/2000/svg">
<path fill-rule="evenodd" clip-rule="evenodd" d="M0.213451 1.32973L4.57646 5.99948L0.21345 10.6682C-0.0635965 10.9651 -0.0720776 11.4564 0.195546 11.7627C0.324645 11.9111 0.498978 11.9958 0.68556 12L0.698753 12C0.879681 12 1.05119 11.9237 1.18217 11.7826L5.60172 7.05427C6.14074 6.43331 6.12472 5.50501 5.60172 4.94468L1.18217 0.21535C1.05213 0.0763131 0.880625 1.06244e-07 0.701581 8.46432e-08L0.699697 8.44159e-08L0.697812 8.41885e-08C0.508402 6.13369e-08 0.325589 0.0867663 0.194605 0.236258C-0.0720762 0.543601 -0.0635952 1.03493 0.213451 1.32973Z" fill="#BDBDBD"/>
</svg>
