<svg width="20" height="20" viewBox="0 0 20 20" fill="none" xmlns="http://www.w3.org/2000/svg">
<path fill-rule="evenodd" clip-rule="evenodd" d="M12.4444 0C11.381 0 10.4368 0.540287 9.875 1.36111C9.34718 0.801991 8.60173 0.444444 7.77778 0.444444C6.19018 0.444444 4.88889 1.74574 4.88889 3.33333C4.88889 3.90526 5.05691 4.43873 5.34722 4.88889H0.666667C0.3176 4.88892 4.44444e-05 5.2065 0 5.55556V9.55556C4.44444e-05 9.90461 0.3176 10.2222 0.666667 10.2222H1.33333V19.3333C1.33338 19.6824 1.65093 20 2 20H18C18.3491 20 18.6666 19.6824 18.6667 19.3333V10.2222H19.3333C19.6824 10.2222 20 9.90461 20 9.55556V5.55556C20 5.2065 19.6824 4.88892 19.3333 4.88889H14.9931C15.3466 4.38421 15.5556 3.77014 15.5556 3.11111C15.5556 1.40079 14.1548 0 12.4444 0ZM10.6667 10.2222H17.3333V18.6667H10.6667V10.2222ZM9.33333 10.2222H2.66666V18.6667H9.33333V10.2222ZM10.6667 6.22223H18.6667V8.8889H10.6667V6.22223ZM9.33336 6.22223H1.33336V8.8889H9.33336V6.22223ZM7.7778 1.77779C8.64478 1.77779 9.33336 2.46636 9.33336 3.33335V4.8889H7.7778C6.91082 4.8889 6.22225 4.20034 6.22225 3.33335C6.22225 2.46636 6.91082 1.77779 7.7778 1.77779ZM14.2222 3.11114C14.2222 2.12141 13.4342 1.33336 12.4444 1.33336C11.4547 1.33336 10.6667 2.12141 10.6667 3.11114V4.88892H12.4444C13.4342 4.88892 14.2222 4.10086 14.2222 3.11114Z" fill="#222222"/>
</svg>
